<mxfile host="app.diagrams.net" modified="2023-04-25T13:32:46.419Z" agent="Mozilla/5.0 (Windows NT 10.0; Win64; x64) AppleWebKit/537.36 (KHTML, like Gecko) Chrome/112.0.0.0 Safari/537.36" etag="Ap16TF66vbm5PNZn8IY0" version="21.2.1" type="device">
  <diagram name="PÃ¡gina-1" id="GWZwUH0XZbV4PmMlRpTS">
    <mxGraphModel dx="1100" dy="595" grid="1" gridSize="10" guides="1" tooltips="1" connect="1" arrows="1" fold="1" page="1" pageScale="1" pageWidth="827" pageHeight="1169" math="0" shadow="0">
      <root>
        <mxCell id="0" />
        <mxCell id="1" parent="0" />
        <mxCell id="vDS71QeLexQegp2Wuo-t-1" value="Ecommerce" style="html=1;shadow=0;dashed=0;shape=mxgraph.bootstrap.rrect;rSize=5;strokeColor=#B8DCFE;strokeWidth=1;fillColor=#CCE7FE;fontColor=#004583;whiteSpace=wrap;align=left;verticalAlign=middle;spacingLeft=10;" vertex="1" parent="1">
          <mxGeometry x="30" y="40" width="990" height="40" as="geometry" />
        </mxCell>
        <mxCell id="vDS71QeLexQegp2Wuo-t-2" value="Ingresar" style="html=1;shadow=0;dashed=0;shape=mxgraph.bootstrap.rrect;rSize=5;strokeColor=#0085FC;strokeWidth=1;fillColor=none;fontColor=#0085FC;whiteSpace=wrap;align=center;verticalAlign=middle;spacingLeft=0;fontStyle=0;fontSize=16;spacing=5;" vertex="1" parent="1">
          <mxGeometry x="929" y="40" width="80" height="40" as="geometry" />
        </mxCell>
        <mxCell id="vDS71QeLexQegp2Wuo-t-5" value="" style="verticalLabelPosition=bottom;verticalAlign=top;html=1;shape=mxgraph.basic.rect;fillColor2=none;strokeWidth=1;size=20;indent=5;" vertex="1" parent="1">
          <mxGeometry x="40" y="140" width="310" height="220" as="geometry" />
        </mxCell>
        <mxCell id="vDS71QeLexQegp2Wuo-t-6" value="Producto 1" style="text;html=1;strokeColor=none;fillColor=none;align=center;verticalAlign=middle;whiteSpace=wrap;rounded=0;" vertex="1" parent="1">
          <mxGeometry x="90" y="140" width="90" height="30" as="geometry" />
        </mxCell>
        <mxCell id="vDS71QeLexQegp2Wuo-t-7" value="" style="whiteSpace=wrap;html=1;aspect=fixed;" vertex="1" parent="1">
          <mxGeometry x="50" y="185" width="105" height="105" as="geometry" />
        </mxCell>
        <mxCell id="vDS71QeLexQegp2Wuo-t-8" value="&lt;h1&gt;&lt;span style=&quot;background-color: initial; font-size: 12px; font-weight: normal;&quot;&gt;Lorem ipsum dolor sit amet, consectetur adipisicing elit, sed do eiusmod tempor incididunt ut labore et dolore magna aliqua.&lt;/span&gt;&lt;br&gt;&lt;/h1&gt;" style="text;html=1;strokeColor=none;fillColor=none;spacing=5;spacingTop=-20;whiteSpace=wrap;overflow=hidden;rounded=0;" vertex="1" parent="1">
          <mxGeometry x="160" y="177.5" width="180" height="122.5" as="geometry" />
        </mxCell>
        <mxCell id="vDS71QeLexQegp2Wuo-t-17" value="Agregar" style="html=1;shadow=0;dashed=0;shape=mxgraph.bootstrap.rrect;rSize=5;strokeColor=none;strokeWidth=1;fillColor=#0085FC;fontColor=#FFFFFF;whiteSpace=wrap;align=center;verticalAlign=middle;spacingLeft=0;fontStyle=0;fontSize=16;spacing=5;" vertex="1" parent="1">
          <mxGeometry x="155" y="310" width="80" height="40" as="geometry" />
        </mxCell>
        <mxCell id="vDS71QeLexQegp2Wuo-t-18" value="" style="verticalLabelPosition=bottom;verticalAlign=top;html=1;shape=mxgraph.basic.rect;fillColor2=none;strokeWidth=1;size=20;indent=5;" vertex="1" parent="1">
          <mxGeometry x="370" y="140" width="310" height="220" as="geometry" />
        </mxCell>
        <mxCell id="vDS71QeLexQegp2Wuo-t-19" value="Producto 1" style="text;html=1;strokeColor=none;fillColor=none;align=center;verticalAlign=middle;whiteSpace=wrap;rounded=0;" vertex="1" parent="1">
          <mxGeometry x="420" y="140" width="90" height="30" as="geometry" />
        </mxCell>
        <mxCell id="vDS71QeLexQegp2Wuo-t-20" value="" style="whiteSpace=wrap;html=1;aspect=fixed;" vertex="1" parent="1">
          <mxGeometry x="380" y="185" width="105" height="105" as="geometry" />
        </mxCell>
        <mxCell id="vDS71QeLexQegp2Wuo-t-21" value="&lt;h1&gt;&lt;span style=&quot;background-color: initial; font-size: 12px; font-weight: normal;&quot;&gt;Lorem ipsum dolor sit amet, consectetur adipisicing elit, sed do eiusmod tempor incididunt ut labore et dolore magna aliqua.&lt;/span&gt;&lt;br&gt;&lt;/h1&gt;" style="text;html=1;strokeColor=none;fillColor=none;spacing=5;spacingTop=-20;whiteSpace=wrap;overflow=hidden;rounded=0;" vertex="1" parent="1">
          <mxGeometry x="490" y="177.5" width="180" height="122.5" as="geometry" />
        </mxCell>
        <mxCell id="vDS71QeLexQegp2Wuo-t-22" value="Agregar" style="html=1;shadow=0;dashed=0;shape=mxgraph.bootstrap.rrect;rSize=5;strokeColor=none;strokeWidth=1;fillColor=#0085FC;fontColor=#FFFFFF;whiteSpace=wrap;align=center;verticalAlign=middle;spacingLeft=0;fontStyle=0;fontSize=16;spacing=5;" vertex="1" parent="1">
          <mxGeometry x="485" y="310" width="80" height="40" as="geometry" />
        </mxCell>
        <mxCell id="vDS71QeLexQegp2Wuo-t-23" value="" style="verticalLabelPosition=bottom;verticalAlign=top;html=1;shape=mxgraph.basic.rect;fillColor2=none;strokeWidth=1;size=20;indent=5;" vertex="1" parent="1">
          <mxGeometry x="700" y="140" width="310" height="220" as="geometry" />
        </mxCell>
        <mxCell id="vDS71QeLexQegp2Wuo-t-24" value="Producto 1" style="text;html=1;strokeColor=none;fillColor=none;align=center;verticalAlign=middle;whiteSpace=wrap;rounded=0;" vertex="1" parent="1">
          <mxGeometry x="750" y="140" width="90" height="30" as="geometry" />
        </mxCell>
        <mxCell id="vDS71QeLexQegp2Wuo-t-25" value="" style="whiteSpace=wrap;html=1;aspect=fixed;" vertex="1" parent="1">
          <mxGeometry x="710" y="185" width="105" height="105" as="geometry" />
        </mxCell>
        <mxCell id="vDS71QeLexQegp2Wuo-t-26" value="&lt;h1&gt;&lt;span style=&quot;background-color: initial; font-size: 12px; font-weight: normal;&quot;&gt;Lorem ipsum dolor sit amet, consectetur adipisicing elit, sed do eiusmod tempor incididunt ut labore et dolore magna aliqua.&lt;/span&gt;&lt;br&gt;&lt;/h1&gt;" style="text;html=1;strokeColor=none;fillColor=none;spacing=5;spacingTop=-20;whiteSpace=wrap;overflow=hidden;rounded=0;" vertex="1" parent="1">
          <mxGeometry x="820" y="177.5" width="180" height="122.5" as="geometry" />
        </mxCell>
        <mxCell id="vDS71QeLexQegp2Wuo-t-27" value="Agregar" style="html=1;shadow=0;dashed=0;shape=mxgraph.bootstrap.rrect;rSize=5;strokeColor=none;strokeWidth=1;fillColor=#0085FC;fontColor=#FFFFFF;whiteSpace=wrap;align=center;verticalAlign=middle;spacingLeft=0;fontStyle=0;fontSize=16;spacing=5;" vertex="1" parent="1">
          <mxGeometry x="815" y="310" width="80" height="40" as="geometry" />
        </mxCell>
        <mxCell id="vDS71QeLexQegp2Wuo-t-28" value="Jhon Alexander" style="rounded=1;whiteSpace=wrap;html=1;arcSize=50;strokeColor=none;strokeWidth=1;fillColor=#F8F9FA;fontColor=#000000;whiteSpace=wrap;align=left;verticalAlign=middle;spacingLeft=0;fontStyle=1;fontSize=14;spacing=10;" vertex="1" parent="1">
          <mxGeometry x="125" y="50" width="125" height="20" as="geometry" />
        </mxCell>
        <mxCell id="vDS71QeLexQegp2Wuo-t-29" value="Mis Compras" style="rounded=1;whiteSpace=wrap;html=1;arcSize=50;strokeColor=none;strokeWidth=1;fillColor=#DB2843;fontColor=#FFFFFF;whiteSpace=wrap;align=left;verticalAlign=middle;spacingLeft=0;fontStyle=1;fontSize=14;spacing=10;" vertex="1" parent="1">
          <mxGeometry x="780" y="50" width="107.5" height="20" as="geometry" />
        </mxCell>
        <mxCell id="vDS71QeLexQegp2Wuo-t-30" value="2" style="rounded=1;whiteSpace=wrap;html=1;arcSize=50;strokeColor=none;strokeWidth=1;fillColor=#33A64C;fontColor=#FFFFFF;whiteSpace=wrap;align=left;verticalAlign=middle;spacingLeft=0;fontStyle=1;fontSize=14;spacing=10;" vertex="1" parent="1">
          <mxGeometry x="750" y="50" width="25" height="20" as="geometry" />
        </mxCell>
        <mxCell id="vDS71QeLexQegp2Wuo-t-31" value="Pantalla 1" style="text;html=1;strokeColor=none;fillColor=none;align=center;verticalAlign=middle;whiteSpace=wrap;rounded=0;" vertex="1" parent="1">
          <mxGeometry x="470" width="60" height="30" as="geometry" />
        </mxCell>
        <mxCell id="vDS71QeLexQegp2Wuo-t-32" value="" style="endArrow=classic;html=1;rounded=0;exitX=0.469;exitY=1.007;exitDx=0;exitDy=0;exitPerimeter=0;" edge="1" parent="1" source="vDS71QeLexQegp2Wuo-t-5" target="vDS71QeLexQegp2Wuo-t-33">
          <mxGeometry width="50" height="50" relative="1" as="geometry">
            <mxPoint x="540" y="190" as="sourcePoint" />
            <mxPoint x="240" y="410" as="targetPoint" />
          </mxGeometry>
        </mxCell>
        <mxCell id="vDS71QeLexQegp2Wuo-t-33" value="Si usuario da cliick y no esta logueado debe mostrarle un modal con un mensaje que debe loguearse para realizar la compra y dos botones uno que diga ingresar u otro que diga crear cuenta, si da click en ingresar lo redirigira al login, caso contrario el otro boton a crear cuenta" style="text;html=1;strokeColor=none;fillColor=none;align=center;verticalAlign=middle;whiteSpace=wrap;rounded=0;" vertex="1" parent="1">
          <mxGeometry x="210" y="395" width="420" height="30" as="geometry" />
        </mxCell>
        <mxCell id="vDS71QeLexQegp2Wuo-t-34" value="Pantalla Login" style="text;html=1;strokeColor=none;fillColor=none;align=center;verticalAlign=middle;whiteSpace=wrap;rounded=0;" vertex="1" parent="1">
          <mxGeometry x="470" y="490" width="140" height="30" as="geometry" />
        </mxCell>
        <mxCell id="vDS71QeLexQegp2Wuo-t-35" value="" style="verticalLabelPosition=bottom;verticalAlign=top;html=1;shape=mxgraph.basic.rect;fillColor2=none;strokeWidth=1;size=20;indent=5;" vertex="1" parent="1">
          <mxGeometry x="390" y="570" width="310" height="270" as="geometry" />
        </mxCell>
        <mxCell id="vDS71QeLexQegp2Wuo-t-37" value="" style="rounded=0;whiteSpace=wrap;html=1;" vertex="1" parent="1">
          <mxGeometry x="412" y="630" width="266" height="20" as="geometry" />
        </mxCell>
        <mxCell id="vDS71QeLexQegp2Wuo-t-38" value="Usuario" style="text;html=1;strokeColor=none;fillColor=none;align=center;verticalAlign=middle;whiteSpace=wrap;rounded=0;" vertex="1" parent="1">
          <mxGeometry x="410" y="600" width="60" height="30" as="geometry" />
        </mxCell>
        <mxCell id="vDS71QeLexQegp2Wuo-t-39" value="" style="rounded=0;whiteSpace=wrap;html=1;" vertex="1" parent="1">
          <mxGeometry x="414" y="700" width="266" height="20" as="geometry" />
        </mxCell>
        <mxCell id="vDS71QeLexQegp2Wuo-t-40" value="Password" style="text;html=1;strokeColor=none;fillColor=none;align=center;verticalAlign=middle;whiteSpace=wrap;rounded=0;" vertex="1" parent="1">
          <mxGeometry x="412" y="670" width="60" height="30" as="geometry" />
        </mxCell>
        <mxCell id="vDS71QeLexQegp2Wuo-t-41" value="Ingresar" style="html=1;shadow=0;dashed=0;shape=mxgraph.bootstrap.rrect;rSize=5;strokeColor=none;strokeWidth=1;fillColor=#0085FC;fontColor=#FFFFFF;whiteSpace=wrap;align=center;verticalAlign=middle;spacingLeft=0;fontStyle=0;fontSize=16;spacing=5;" vertex="1" parent="1">
          <mxGeometry x="510" y="740" width="80" height="40" as="geometry" />
        </mxCell>
        <mxCell id="vDS71QeLexQegp2Wuo-t-42" value="Crear Cuenta..." style="text;html=1;strokeColor=none;fillColor=none;align=center;verticalAlign=middle;whiteSpace=wrap;rounded=0;" vertex="1" parent="1">
          <mxGeometry x="483" y="800" width="140" height="30" as="geometry" />
        </mxCell>
        <mxCell id="vDS71QeLexQegp2Wuo-t-43" value="Pantalla Crear cuenta" style="text;html=1;strokeColor=none;fillColor=none;align=center;verticalAlign=middle;whiteSpace=wrap;rounded=0;" vertex="1" parent="1">
          <mxGeometry x="475" y="880" width="140" height="30" as="geometry" />
        </mxCell>
        <mxCell id="vDS71QeLexQegp2Wuo-t-44" value="" style="verticalLabelPosition=bottom;verticalAlign=top;html=1;shape=mxgraph.basic.rect;fillColor2=none;strokeWidth=1;size=20;indent=5;" vertex="1" parent="1">
          <mxGeometry x="395" y="960" width="310" height="400" as="geometry" />
        </mxCell>
        <mxCell id="vDS71QeLexQegp2Wuo-t-45" value="" style="rounded=0;whiteSpace=wrap;html=1;" vertex="1" parent="1">
          <mxGeometry x="417" y="1020" width="266" height="20" as="geometry" />
        </mxCell>
        <mxCell id="vDS71QeLexQegp2Wuo-t-46" value="Usuario" style="text;html=1;strokeColor=none;fillColor=none;align=center;verticalAlign=middle;whiteSpace=wrap;rounded=0;" vertex="1" parent="1">
          <mxGeometry x="415" y="990" width="60" height="30" as="geometry" />
        </mxCell>
        <mxCell id="vDS71QeLexQegp2Wuo-t-47" value="" style="rounded=0;whiteSpace=wrap;html=1;" vertex="1" parent="1">
          <mxGeometry x="419" y="1090" width="266" height="20" as="geometry" />
        </mxCell>
        <mxCell id="vDS71QeLexQegp2Wuo-t-48" value="Email" style="text;html=1;strokeColor=none;fillColor=none;align=center;verticalAlign=middle;whiteSpace=wrap;rounded=0;" vertex="1" parent="1">
          <mxGeometry x="410" y="1060" width="60" height="30" as="geometry" />
        </mxCell>
        <mxCell id="vDS71QeLexQegp2Wuo-t-51" value="" style="rounded=0;whiteSpace=wrap;html=1;" vertex="1" parent="1">
          <mxGeometry x="421" y="1210" width="266" height="20" as="geometry" />
        </mxCell>
        <mxCell id="vDS71QeLexQegp2Wuo-t-52" value="Confirmar Password" style="text;html=1;strokeColor=none;fillColor=none;align=center;verticalAlign=middle;whiteSpace=wrap;rounded=0;" vertex="1" parent="1">
          <mxGeometry x="419" y="1180" width="121" height="30" as="geometry" />
        </mxCell>
        <mxCell id="vDS71QeLexQegp2Wuo-t-53" value="Crear Cuenta" style="html=1;shadow=0;dashed=0;shape=mxgraph.bootstrap.rrect;rSize=5;strokeColor=none;strokeWidth=1;fillColor=#0085FC;fontColor=#FFFFFF;whiteSpace=wrap;align=center;verticalAlign=middle;spacingLeft=0;fontStyle=0;fontSize=16;spacing=5;" vertex="1" parent="1">
          <mxGeometry x="499" y="1250" width="107" height="40" as="geometry" />
        </mxCell>
        <mxCell id="vDS71QeLexQegp2Wuo-t-54" value="Ingresar" style="text;html=1;strokeColor=none;fillColor=none;align=center;verticalAlign=middle;whiteSpace=wrap;rounded=0;" vertex="1" parent="1">
          <mxGeometry x="490" y="1310" width="140" height="30" as="geometry" />
        </mxCell>
        <mxCell id="vDS71QeLexQegp2Wuo-t-55" value="" style="rounded=0;whiteSpace=wrap;html=1;" vertex="1" parent="1">
          <mxGeometry x="419" y="1151" width="266" height="20" as="geometry" />
        </mxCell>
        <mxCell id="vDS71QeLexQegp2Wuo-t-56" value="Password" style="text;html=1;strokeColor=none;fillColor=none;align=center;verticalAlign=middle;whiteSpace=wrap;rounded=0;" vertex="1" parent="1">
          <mxGeometry x="417" y="1121" width="60" height="30" as="geometry" />
        </mxCell>
        <mxCell id="vDS71QeLexQegp2Wuo-t-57" value="" style="endArrow=classic;html=1;rounded=0;" edge="1" parent="1" target="vDS71QeLexQegp2Wuo-t-58">
          <mxGeometry width="50" height="50" relative="1" as="geometry">
            <mxPoint x="580" y="1330" as="sourcePoint" />
            <mxPoint x="830" y="1180" as="targetPoint" />
          </mxGeometry>
        </mxCell>
        <mxCell id="vDS71QeLexQegp2Wuo-t-58" value="Redirigira a la pantalla de login" style="text;html=1;strokeColor=none;fillColor=none;align=center;verticalAlign=middle;whiteSpace=wrap;rounded=0;" vertex="1" parent="1">
          <mxGeometry x="800" y="1165" width="180" height="30" as="geometry" />
        </mxCell>
        <mxCell id="vDS71QeLexQegp2Wuo-t-59" value="" style="endArrow=classic;html=1;rounded=0;exitX=0.75;exitY=1;exitDx=0;exitDy=0;" edge="1" parent="1" source="vDS71QeLexQegp2Wuo-t-42" target="vDS71QeLexQegp2Wuo-t-60">
          <mxGeometry width="50" height="50" relative="1" as="geometry">
            <mxPoint x="540" y="990" as="sourcePoint" />
            <mxPoint x="740" y="860" as="targetPoint" />
          </mxGeometry>
        </mxCell>
        <mxCell id="vDS71QeLexQegp2Wuo-t-60" value="Redirigira a la pantalla de crear cuenta" style="text;html=1;strokeColor=none;fillColor=none;align=center;verticalAlign=middle;whiteSpace=wrap;rounded=0;" vertex="1" parent="1">
          <mxGeometry x="710" y="845" width="250" height="30" as="geometry" />
        </mxCell>
        <mxCell id="vDS71QeLexQegp2Wuo-t-61" value="Cuando cree la cuenta se le debe mostrar un modal de creacion de cuenta exitosa, y un setTimeOut, que despues de unos 5 segundos lo redirija al home donde estan los productos, indicando en el navbar el nombre de usuario" style="text;html=1;strokeColor=none;fillColor=none;align=center;verticalAlign=middle;whiteSpace=wrap;rounded=0;" vertex="1" parent="1">
          <mxGeometry x="380" y="1390" width="355" height="30" as="geometry" />
        </mxCell>
        <mxCell id="vDS71QeLexQegp2Wuo-t-62" value="Pantalla Compras" style="text;html=1;strokeColor=none;fillColor=none;align=center;verticalAlign=middle;whiteSpace=wrap;rounded=0;" vertex="1" parent="1">
          <mxGeometry x="475" y="1480" width="140" height="30" as="geometry" />
        </mxCell>
        <mxCell id="vDS71QeLexQegp2Wuo-t-63" value="" style="endArrow=classic;html=1;rounded=0;" edge="1" parent="1" source="vDS71QeLexQegp2Wuo-t-2">
          <mxGeometry width="50" height="50" relative="1" as="geometry">
            <mxPoint x="540" y="220" as="sourcePoint" />
            <mxPoint x="1080" y="120" as="targetPoint" />
          </mxGeometry>
        </mxCell>
        <mxCell id="vDS71QeLexQegp2Wuo-t-64" value="El usuario sera redirigido a la pantalla de login" style="text;html=1;strokeColor=none;fillColor=none;align=center;verticalAlign=middle;whiteSpace=wrap;rounded=0;" vertex="1" parent="1">
          <mxGeometry x="1060" y="130" width="130" height="30" as="geometry" />
        </mxCell>
        <mxCell id="vDS71QeLexQegp2Wuo-t-65" value="" style="endArrow=classic;html=1;rounded=0;" edge="1" parent="1" source="vDS71QeLexQegp2Wuo-t-41" target="vDS71QeLexQegp2Wuo-t-66">
          <mxGeometry width="50" height="50" relative="1" as="geometry">
            <mxPoint x="740" y="720" as="sourcePoint" />
            <mxPoint x="590" y="790" as="targetPoint" />
          </mxGeometry>
        </mxCell>
        <mxCell id="vDS71QeLexQegp2Wuo-t-66" value="Si el usuario es normal se redirigira a la pantalla donde estan todos los productos, caso contrario si es administrador se redirigira a la pantallla de administracion" style="text;html=1;strokeColor=none;fillColor=none;align=center;verticalAlign=middle;whiteSpace=wrap;rounded=0;" vertex="1" parent="1">
          <mxGeometry x="760" y="650" width="230" height="30" as="geometry" />
        </mxCell>
        <mxCell id="vDS71QeLexQegp2Wuo-t-73" value="" style="shape=flexArrow;endArrow=classic;html=1;rounded=0;exitX=0.645;exitY=0.977;exitDx=0;exitDy=0;exitPerimeter=0;" edge="1" parent="1" source="vDS71QeLexQegp2Wuo-t-5" target="vDS71QeLexQegp2Wuo-t-74">
          <mxGeometry width="50" height="50" relative="1" as="geometry">
            <mxPoint x="540" y="430" as="sourcePoint" />
            <mxPoint x="830" y="390" as="targetPoint" />
          </mxGeometry>
        </mxCell>
        <mxCell id="vDS71QeLexQegp2Wuo-t-74" value="Si el usuario esta logueado lo redirigira a la pantalla de compra" style="text;html=1;strokeColor=none;fillColor=none;align=center;verticalAlign=middle;whiteSpace=wrap;rounded=0;" vertex="1" parent="1">
          <mxGeometry x="800" y="375" width="200" height="30" as="geometry" />
        </mxCell>
        <mxCell id="vDS71QeLexQegp2Wuo-t-75" value="Ecommerce" style="html=1;shadow=0;dashed=0;shape=mxgraph.bootstrap.rrect;rSize=5;strokeColor=#B8DCFE;strokeWidth=1;fillColor=#CCE7FE;fontColor=#004583;whiteSpace=wrap;align=left;verticalAlign=middle;spacingLeft=10;" vertex="1" parent="1">
          <mxGeometry x="70" y="1530" width="990" height="40" as="geometry" />
        </mxCell>
        <mxCell id="vDS71QeLexQegp2Wuo-t-76" value="Ingresar" style="html=1;shadow=0;dashed=0;shape=mxgraph.bootstrap.rrect;rSize=5;strokeColor=#0085FC;strokeWidth=1;fillColor=none;fontColor=#0085FC;whiteSpace=wrap;align=center;verticalAlign=middle;spacingLeft=0;fontStyle=0;fontSize=16;spacing=5;" vertex="1" parent="1">
          <mxGeometry x="969" y="1530" width="80" height="40" as="geometry" />
        </mxCell>
        <mxCell id="vDS71QeLexQegp2Wuo-t-77" value="Jhon Alexander" style="rounded=1;whiteSpace=wrap;html=1;arcSize=50;strokeColor=none;strokeWidth=1;fillColor=#F8F9FA;fontColor=#000000;whiteSpace=wrap;align=left;verticalAlign=middle;spacingLeft=0;fontStyle=1;fontSize=14;spacing=10;" vertex="1" parent="1">
          <mxGeometry x="165" y="1540" width="125" height="20" as="geometry" />
        </mxCell>
        <mxCell id="vDS71QeLexQegp2Wuo-t-80" value="&lt;h1&gt;Producto 1&lt;/h1&gt;&lt;p&gt;Lorem ipsum dolor sit amet, consectetur adipisicing elit, sed do eiusmod tempor incididunt ut labore et dolore magna aliqua.&lt;/p&gt;" style="text;html=1;strokeColor=none;fillColor=none;spacing=5;spacingTop=-20;whiteSpace=wrap;overflow=hidden;rounded=0;" vertex="1" parent="1">
          <mxGeometry x="110" y="1634" width="190" height="120" as="geometry" />
        </mxCell>
        <mxCell id="vDS71QeLexQegp2Wuo-t-81" value="" style="rounded=0;whiteSpace=wrap;html=1;" vertex="1" parent="1">
          <mxGeometry x="330" y="1634" width="240" height="116" as="geometry" />
        </mxCell>
        <mxCell id="vDS71QeLexQegp2Wuo-t-82" value="FOTO" style="text;html=1;strokeColor=none;fillColor=none;align=center;verticalAlign=middle;whiteSpace=wrap;rounded=0;" vertex="1" parent="1">
          <mxGeometry x="417" y="1677" width="60" height="30" as="geometry" />
        </mxCell>
        <mxCell id="vDS71QeLexQegp2Wuo-t-83" value="Comprar" style="html=1;shadow=0;dashed=0;shape=mxgraph.bootstrap.rrect;rSize=5;strokeColor=none;strokeWidth=1;fillColor=#33A64C;fontColor=#FFFFFF;whiteSpace=wrap;align=center;verticalAlign=middle;spacingLeft=0;fontStyle=0;fontSize=16;spacing=5;" vertex="1" parent="1">
          <mxGeometry x="788.75" y="1637" width="90" height="40" as="geometry" />
        </mxCell>
        <mxCell id="vDS71QeLexQegp2Wuo-t-84" value="" style="endArrow=classic;html=1;rounded=0;" edge="1" parent="1" source="vDS71QeLexQegp2Wuo-t-83" target="vDS71QeLexQegp2Wuo-t-85">
          <mxGeometry width="50" height="50" relative="1" as="geometry">
            <mxPoint x="540" y="1600" as="sourcePoint" />
            <mxPoint x="910" y="1740" as="targetPoint" />
          </mxGeometry>
        </mxCell>
        <mxCell id="vDS71QeLexQegp2Wuo-t-85" value="Cuando el usuario de en comprar debe mostrarle un mensaje de confirmacion, preguntandole si esta seguro de la compra" style="text;html=1;strokeColor=none;fillColor=none;align=center;verticalAlign=middle;whiteSpace=wrap;rounded=0;" vertex="1" parent="1">
          <mxGeometry x="788.75" y="1750" width="220" height="30" as="geometry" />
        </mxCell>
        <mxCell id="vDS71QeLexQegp2Wuo-t-86" value="" style="rounded=1;whiteSpace=wrap;html=1;" vertex="1" parent="1">
          <mxGeometry x="780" y="1820" width="260" height="130" as="geometry" />
        </mxCell>
        <mxCell id="vDS71QeLexQegp2Wuo-t-87" value="Esta seguro de realizar la compra" style="text;html=1;strokeColor=none;fillColor=none;align=center;verticalAlign=middle;whiteSpace=wrap;rounded=0;" vertex="1" parent="1">
          <mxGeometry x="849" y="1850" width="120" height="30" as="geometry" />
        </mxCell>
        <mxCell id="vDS71QeLexQegp2Wuo-t-88" value="Confirmar" style="html=1;shadow=0;dashed=0;shape=mxgraph.bootstrap.rrect;rSize=5;strokeColor=none;strokeWidth=1;fillColor=#33A64C;fontColor=#FFFFFF;whiteSpace=wrap;align=left;verticalAlign=middle;spacingLeft=0;fontStyle=1;fontSize=14;spacing=5;" vertex="1" parent="1">
          <mxGeometry x="830" y="1900" width="80" height="20" as="geometry" />
        </mxCell>
        <mxCell id="vDS71QeLexQegp2Wuo-t-89" value="Cancelar" style="html=1;shadow=0;dashed=0;shape=mxgraph.bootstrap.rrect;rSize=5;strokeColor=none;strokeWidth=1;fillColor=#DB2843;fontColor=#FFFFFF;whiteSpace=wrap;align=left;verticalAlign=middle;spacingLeft=0;fontStyle=1;fontSize=14;spacing=5;" vertex="1" parent="1">
          <mxGeometry x="940" y="1900" width="80" height="20" as="geometry" />
        </mxCell>
        <mxCell id="vDS71QeLexQegp2Wuo-t-90" value="Eliminar" style="rounded=1;whiteSpace=wrap;html=1;arcSize=50;strokeColor=none;strokeWidth=1;fillColor=#DB2843;fontColor=#FFFFFF;whiteSpace=wrap;align=left;verticalAlign=middle;spacingLeft=0;fontStyle=1;fontSize=14;spacing=10;" vertex="1" parent="1">
          <mxGeometry x="330" y="1780" width="80" height="20" as="geometry" />
        </mxCell>
        <mxCell id="vDS71QeLexQegp2Wuo-t-91" value="" style="endArrow=classic;html=1;rounded=0;exitX=0.75;exitY=1;exitDx=0;exitDy=0;" edge="1" parent="1" source="vDS71QeLexQegp2Wuo-t-90" target="vDS71QeLexQegp2Wuo-t-92">
          <mxGeometry width="50" height="50" relative="1" as="geometry">
            <mxPoint x="540" y="1750" as="sourcePoint" />
            <mxPoint x="420" y="1840" as="targetPoint" />
          </mxGeometry>
        </mxCell>
        <mxCell id="vDS71QeLexQegp2Wuo-t-92" value="Si el usuario da click en eliminar se quitaria el producto de la lista de compras" style="text;html=1;strokeColor=none;fillColor=none;align=center;verticalAlign=middle;whiteSpace=wrap;rounded=0;" vertex="1" parent="1">
          <mxGeometry x="390" y="1825" width="200" height="30" as="geometry" />
        </mxCell>
        <mxCell id="vDS71QeLexQegp2Wuo-t-93" value="" style="endArrow=classic;html=1;rounded=0;" edge="1" parent="1" source="vDS71QeLexQegp2Wuo-t-86" target="vDS71QeLexQegp2Wuo-t-94">
          <mxGeometry width="50" height="50" relative="1" as="geometry">
            <mxPoint x="540" y="1970" as="sourcePoint" />
            <mxPoint x="620" y="1930" as="targetPoint" />
          </mxGeometry>
        </mxCell>
        <mxCell id="vDS71QeLexQegp2Wuo-t-94" value="Si el usuario da click en confirmar pasa a la pantalla de gracias" style="text;html=1;strokeColor=none;fillColor=none;align=center;verticalAlign=middle;whiteSpace=wrap;rounded=0;" vertex="1" parent="1">
          <mxGeometry x="490" y="1915" width="160" height="30" as="geometry" />
        </mxCell>
        <mxCell id="vDS71QeLexQegp2Wuo-t-96" value="Pantalla Gracias" style="text;html=1;strokeColor=none;fillColor=none;align=center;verticalAlign=middle;whiteSpace=wrap;rounded=0;" vertex="1" parent="1">
          <mxGeometry x="466" y="2010" width="140" height="30" as="geometry" />
        </mxCell>
        <mxCell id="vDS71QeLexQegp2Wuo-t-97" value="" style="rounded=0;whiteSpace=wrap;html=1;" vertex="1" parent="1">
          <mxGeometry x="235" y="2060" width="645" height="260" as="geometry" />
        </mxCell>
        <mxCell id="vDS71QeLexQegp2Wuo-t-98" value="GRACIAS POR SU COMPRA" style="text;html=1;strokeColor=none;fillColor=none;align=center;verticalAlign=middle;whiteSpace=wrap;rounded=0;" vertex="1" parent="1">
          <mxGeometry x="430" y="2120" width="220" height="30" as="geometry" />
        </mxCell>
        <mxCell id="vDS71QeLexQegp2Wuo-t-100" value="Volver" style="html=1;shadow=0;dashed=0;shape=mxgraph.bootstrap.rrect;rSize=5;strokeColor=none;strokeWidth=1;fillColor=#0085FC;fontColor=#FFFFFF;whiteSpace=wrap;align=center;verticalAlign=middle;spacingLeft=0;fontStyle=0;fontSize=16;spacing=5;" vertex="1" parent="1">
          <mxGeometry x="505" y="2220" width="80" height="40" as="geometry" />
        </mxCell>
        <mxCell id="vDS71QeLexQegp2Wuo-t-101" value="" style="endArrow=classic;html=1;rounded=0;" edge="1" parent="1" source="vDS71QeLexQegp2Wuo-t-100" target="vDS71QeLexQegp2Wuo-t-102">
          <mxGeometry width="50" height="50" relative="1" as="geometry">
            <mxPoint x="540" y="2060" as="sourcePoint" />
            <mxPoint x="910" y="2080" as="targetPoint" />
          </mxGeometry>
        </mxCell>
        <mxCell id="vDS71QeLexQegp2Wuo-t-102" value="SerÃ¡ redirigido al home de lista de productos" style="text;html=1;strokeColor=none;fillColor=none;align=center;verticalAlign=middle;whiteSpace=wrap;rounded=0;" vertex="1" parent="1">
          <mxGeometry x="939" y="2060" width="60" height="30" as="geometry" />
        </mxCell>
        <mxCell id="vDS71QeLexQegp2Wuo-t-103" value="Pantalla Administrador - Usuarios" style="text;html=1;strokeColor=#82b366;fillColor=#d5e8d4;align=center;verticalAlign=middle;whiteSpace=wrap;rounded=0;" vertex="1" parent="1">
          <mxGeometry x="477" y="2360" width="140" height="30" as="geometry" />
        </mxCell>
        <mxCell id="vDS71QeLexQegp2Wuo-t-104" value="Ecommerce Admin" style="html=1;shadow=0;dashed=0;shape=mxgraph.bootstrap.rrect;rSize=5;strokeColor=#B8DCFE;strokeWidth=1;fillColor=#CCE7FE;fontColor=#004583;whiteSpace=wrap;align=left;verticalAlign=middle;spacingLeft=10;" vertex="1" parent="1">
          <mxGeometry x="85" y="2410" width="990" height="40" as="geometry" />
        </mxCell>
        <mxCell id="vDS71QeLexQegp2Wuo-t-105" value="Logout" style="html=1;shadow=0;dashed=0;shape=mxgraph.bootstrap.rrect;rSize=5;strokeColor=#0085FC;strokeWidth=1;fillColor=none;fontColor=#0085FC;whiteSpace=wrap;align=center;verticalAlign=middle;spacingLeft=0;fontStyle=0;fontSize=16;spacing=5;" vertex="1" parent="1">
          <mxGeometry x="984" y="2410" width="80" height="40" as="geometry" />
        </mxCell>
        <mxCell id="vDS71QeLexQegp2Wuo-t-106" value="Jhon Alexander" style="rounded=1;whiteSpace=wrap;html=1;arcSize=50;strokeColor=none;strokeWidth=1;fillColor=#F8F9FA;fontColor=#000000;whiteSpace=wrap;align=left;verticalAlign=middle;spacingLeft=0;fontStyle=1;fontSize=14;spacing=10;" vertex="1" parent="1">
          <mxGeometry x="205" y="2420" width="125" height="20" as="geometry" />
        </mxCell>
        <mxCell id="vDS71QeLexQegp2Wuo-t-107" value="Usuarios" style="rounded=1;whiteSpace=wrap;html=1;arcSize=50;strokeColor=none;strokeWidth=1;fillColor=#F8F9FA;fontColor=#000000;whiteSpace=wrap;align=left;verticalAlign=middle;spacingLeft=0;fontStyle=1;fontSize=14;spacing=10;" vertex="1" parent="1">
          <mxGeometry x="387.5" y="2420" width="125" height="20" as="geometry" />
        </mxCell>
        <mxCell id="vDS71QeLexQegp2Wuo-t-108" value="Productos" style="rounded=1;whiteSpace=wrap;html=1;arcSize=50;strokeColor=none;strokeWidth=1;fillColor=#F8F9FA;fontColor=#000000;whiteSpace=wrap;align=left;verticalAlign=middle;spacingLeft=0;fontStyle=1;fontSize=14;spacing=10;" vertex="1" parent="1">
          <mxGeometry x="530" y="2420" width="125" height="20" as="geometry" />
        </mxCell>
        <mxCell id="vDS71QeLexQegp2Wuo-t-126" value="Usuario 01" style="text;html=1;strokeColor=none;fillColor=none;align=center;verticalAlign=middle;whiteSpace=wrap;rounded=0;" vertex="1" parent="1">
          <mxGeometry x="110" y="2550" width="90" height="30" as="geometry" />
        </mxCell>
        <mxCell id="vDS71QeLexQegp2Wuo-t-127" value="Email" style="text;html=1;strokeColor=none;fillColor=none;align=center;verticalAlign=middle;whiteSpace=wrap;rounded=0;" vertex="1" parent="1">
          <mxGeometry x="235" y="2550" width="90" height="30" as="geometry" />
        </mxCell>
        <mxCell id="vDS71QeLexQegp2Wuo-t-128" value="Eliminar" style="html=1;shadow=0;dashed=0;shape=mxgraph.bootstrap.rrect;rSize=5;strokeColor=none;strokeWidth=1;fillColor=#DB2843;fontColor=#FFFFFF;whiteSpace=wrap;align=center;verticalAlign=middle;spacingLeft=0;fontStyle=0;fontSize=16;spacing=5;" vertex="1" parent="1">
          <mxGeometry x="600" y="2560" width="60" height="20" as="geometry" />
        </mxCell>
        <mxCell id="vDS71QeLexQegp2Wuo-t-130" value="Usuario 01" style="text;html=1;strokeColor=none;fillColor=none;align=center;verticalAlign=middle;whiteSpace=wrap;rounded=0;" vertex="1" parent="1">
          <mxGeometry x="110" y="2580" width="90" height="30" as="geometry" />
        </mxCell>
        <mxCell id="vDS71QeLexQegp2Wuo-t-131" value="Email" style="text;html=1;strokeColor=none;fillColor=none;align=center;verticalAlign=middle;whiteSpace=wrap;rounded=0;" vertex="1" parent="1">
          <mxGeometry x="235" y="2580" width="90" height="30" as="geometry" />
        </mxCell>
        <mxCell id="vDS71QeLexQegp2Wuo-t-132" value="Eliminar" style="html=1;shadow=0;dashed=0;shape=mxgraph.bootstrap.rrect;rSize=5;strokeColor=none;strokeWidth=1;fillColor=#DB2843;fontColor=#FFFFFF;whiteSpace=wrap;align=center;verticalAlign=middle;spacingLeft=0;fontStyle=0;fontSize=16;spacing=5;" vertex="1" parent="1">
          <mxGeometry x="600" y="2590" width="60" height="20" as="geometry" />
        </mxCell>
        <mxCell id="vDS71QeLexQegp2Wuo-t-134" value="Usuario 01" style="text;html=1;strokeColor=none;fillColor=none;align=center;verticalAlign=middle;whiteSpace=wrap;rounded=0;" vertex="1" parent="1">
          <mxGeometry x="110" y="2610" width="90" height="30" as="geometry" />
        </mxCell>
        <mxCell id="vDS71QeLexQegp2Wuo-t-135" value="Email" style="text;html=1;strokeColor=none;fillColor=none;align=center;verticalAlign=middle;whiteSpace=wrap;rounded=0;" vertex="1" parent="1">
          <mxGeometry x="235" y="2610" width="90" height="30" as="geometry" />
        </mxCell>
        <mxCell id="vDS71QeLexQegp2Wuo-t-136" value="Eliminar" style="html=1;shadow=0;dashed=0;shape=mxgraph.bootstrap.rrect;rSize=5;strokeColor=none;strokeWidth=1;fillColor=#DB2843;fontColor=#FFFFFF;whiteSpace=wrap;align=center;verticalAlign=middle;spacingLeft=0;fontStyle=0;fontSize=16;spacing=5;" vertex="1" parent="1">
          <mxGeometry x="600" y="2620" width="60" height="20" as="geometry" />
        </mxCell>
        <mxCell id="vDS71QeLexQegp2Wuo-t-139" value="Pantalla Administrador - Productos" style="text;html=1;strokeColor=#82b366;fillColor=#d5e8d4;align=center;verticalAlign=middle;whiteSpace=wrap;rounded=0;" vertex="1" parent="1">
          <mxGeometry x="477" y="2700" width="140" height="30" as="geometry" />
        </mxCell>
        <mxCell id="vDS71QeLexQegp2Wuo-t-140" value="Ecommerce Admin" style="html=1;shadow=0;dashed=0;shape=mxgraph.bootstrap.rrect;rSize=5;strokeColor=#B8DCFE;strokeWidth=1;fillColor=#CCE7FE;fontColor=#004583;whiteSpace=wrap;align=left;verticalAlign=middle;spacingLeft=10;" vertex="1" parent="1">
          <mxGeometry x="85" y="2750" width="990" height="40" as="geometry" />
        </mxCell>
        <mxCell id="vDS71QeLexQegp2Wuo-t-141" value="Logout" style="html=1;shadow=0;dashed=0;shape=mxgraph.bootstrap.rrect;rSize=5;strokeColor=#0085FC;strokeWidth=1;fillColor=none;fontColor=#0085FC;whiteSpace=wrap;align=center;verticalAlign=middle;spacingLeft=0;fontStyle=0;fontSize=16;spacing=5;" vertex="1" parent="1">
          <mxGeometry x="984" y="2750" width="80" height="40" as="geometry" />
        </mxCell>
        <mxCell id="vDS71QeLexQegp2Wuo-t-142" value="Jhon Alexander" style="rounded=1;whiteSpace=wrap;html=1;arcSize=50;strokeColor=none;strokeWidth=1;fillColor=#F8F9FA;fontColor=#000000;whiteSpace=wrap;align=left;verticalAlign=middle;spacingLeft=0;fontStyle=1;fontSize=14;spacing=10;" vertex="1" parent="1">
          <mxGeometry x="205" y="2760" width="125" height="20" as="geometry" />
        </mxCell>
        <mxCell id="vDS71QeLexQegp2Wuo-t-143" value="Usuarios" style="rounded=1;whiteSpace=wrap;html=1;arcSize=50;strokeColor=none;strokeWidth=1;fillColor=#F8F9FA;fontColor=#000000;whiteSpace=wrap;align=left;verticalAlign=middle;spacingLeft=0;fontStyle=1;fontSize=14;spacing=10;" vertex="1" parent="1">
          <mxGeometry x="387.5" y="2760" width="125" height="20" as="geometry" />
        </mxCell>
        <mxCell id="vDS71QeLexQegp2Wuo-t-144" value="Productos" style="rounded=1;whiteSpace=wrap;html=1;arcSize=50;strokeColor=none;strokeWidth=1;fillColor=#F8F9FA;fontColor=#000000;whiteSpace=wrap;align=left;verticalAlign=middle;spacingLeft=0;fontStyle=1;fontSize=14;spacing=10;" vertex="1" parent="1">
          <mxGeometry x="530" y="2760" width="125" height="20" as="geometry" />
        </mxCell>
        <mxCell id="vDS71QeLexQegp2Wuo-t-145" value="Editar" style="html=1;shadow=0;dashed=0;shape=mxgraph.bootstrap.rrect;rSize=5;strokeColor=none;strokeWidth=1;fillColor=#33A64C;fontColor=#FFFFFF;whiteSpace=wrap;align=left;verticalAlign=middle;spacingLeft=0;fontStyle=1;fontSize=14;spacing=5;" vertex="1" parent="1">
          <mxGeometry x="507.5" y="2900" width="65" height="20" as="geometry" />
        </mxCell>
        <mxCell id="vDS71QeLexQegp2Wuo-t-146" value="producto 01" style="text;html=1;strokeColor=none;fillColor=none;align=center;verticalAlign=middle;whiteSpace=wrap;rounded=0;" vertex="1" parent="1">
          <mxGeometry x="110" y="2890" width="90" height="30" as="geometry" />
        </mxCell>
        <mxCell id="vDS71QeLexQegp2Wuo-t-147" value="Email" style="text;html=1;strokeColor=none;fillColor=none;align=center;verticalAlign=middle;whiteSpace=wrap;rounded=0;" vertex="1" parent="1">
          <mxGeometry x="235" y="2890" width="90" height="30" as="geometry" />
        </mxCell>
        <mxCell id="vDS71QeLexQegp2Wuo-t-148" value="Eliminar" style="html=1;shadow=0;dashed=0;shape=mxgraph.bootstrap.rrect;rSize=5;strokeColor=none;strokeWidth=1;fillColor=#DB2843;fontColor=#FFFFFF;whiteSpace=wrap;align=center;verticalAlign=middle;spacingLeft=0;fontStyle=0;fontSize=16;spacing=5;" vertex="1" parent="1">
          <mxGeometry x="600" y="2900" width="60" height="20" as="geometry" />
        </mxCell>
        <mxCell id="vDS71QeLexQegp2Wuo-t-149" value="Editar" style="html=1;shadow=0;dashed=0;shape=mxgraph.bootstrap.rrect;rSize=5;strokeColor=none;strokeWidth=1;fillColor=#33A64C;fontColor=#FFFFFF;whiteSpace=wrap;align=left;verticalAlign=middle;spacingLeft=0;fontStyle=1;fontSize=14;spacing=5;" vertex="1" parent="1">
          <mxGeometry x="507.5" y="2930" width="65" height="20" as="geometry" />
        </mxCell>
        <mxCell id="vDS71QeLexQegp2Wuo-t-150" value="Producto 01" style="text;html=1;strokeColor=none;fillColor=none;align=center;verticalAlign=middle;whiteSpace=wrap;rounded=0;" vertex="1" parent="1">
          <mxGeometry x="110" y="2920" width="90" height="30" as="geometry" />
        </mxCell>
        <mxCell id="vDS71QeLexQegp2Wuo-t-151" value="Email" style="text;html=1;strokeColor=none;fillColor=none;align=center;verticalAlign=middle;whiteSpace=wrap;rounded=0;" vertex="1" parent="1">
          <mxGeometry x="235" y="2920" width="90" height="30" as="geometry" />
        </mxCell>
        <mxCell id="vDS71QeLexQegp2Wuo-t-152" value="Eliminar" style="html=1;shadow=0;dashed=0;shape=mxgraph.bootstrap.rrect;rSize=5;strokeColor=none;strokeWidth=1;fillColor=#DB2843;fontColor=#FFFFFF;whiteSpace=wrap;align=center;verticalAlign=middle;spacingLeft=0;fontStyle=0;fontSize=16;spacing=5;" vertex="1" parent="1">
          <mxGeometry x="600" y="2930" width="60" height="20" as="geometry" />
        </mxCell>
        <mxCell id="vDS71QeLexQegp2Wuo-t-153" value="Editar" style="html=1;shadow=0;dashed=0;shape=mxgraph.bootstrap.rrect;rSize=5;strokeColor=none;strokeWidth=1;fillColor=#33A64C;fontColor=#FFFFFF;whiteSpace=wrap;align=left;verticalAlign=middle;spacingLeft=0;fontStyle=1;fontSize=14;spacing=5;" vertex="1" parent="1">
          <mxGeometry x="507.5" y="2960" width="65" height="20" as="geometry" />
        </mxCell>
        <mxCell id="vDS71QeLexQegp2Wuo-t-154" value="Producto 01" style="text;html=1;strokeColor=none;fillColor=none;align=center;verticalAlign=middle;whiteSpace=wrap;rounded=0;" vertex="1" parent="1">
          <mxGeometry x="110" y="2950" width="90" height="30" as="geometry" />
        </mxCell>
        <mxCell id="vDS71QeLexQegp2Wuo-t-155" value="Email" style="text;html=1;strokeColor=none;fillColor=none;align=center;verticalAlign=middle;whiteSpace=wrap;rounded=0;" vertex="1" parent="1">
          <mxGeometry x="235" y="2950" width="90" height="30" as="geometry" />
        </mxCell>
        <mxCell id="vDS71QeLexQegp2Wuo-t-156" value="Eliminar" style="html=1;shadow=0;dashed=0;shape=mxgraph.bootstrap.rrect;rSize=5;strokeColor=none;strokeWidth=1;fillColor=#DB2843;fontColor=#FFFFFF;whiteSpace=wrap;align=center;verticalAlign=middle;spacingLeft=0;fontStyle=0;fontSize=16;spacing=5;" vertex="1" parent="1">
          <mxGeometry x="600" y="2960" width="60" height="20" as="geometry" />
        </mxCell>
        <mxCell id="vDS71QeLexQegp2Wuo-t-157" value="" style="endArrow=classic;html=1;rounded=0;" edge="1" parent="1" source="vDS71QeLexQegp2Wuo-t-145">
          <mxGeometry width="50" height="50" relative="1" as="geometry">
            <mxPoint x="810" y="2920" as="sourcePoint" />
            <mxPoint x="860" y="2870" as="targetPoint" />
          </mxGeometry>
        </mxCell>
        <mxCell id="vDS71QeLexQegp2Wuo-t-158" value="Redirigira al formulario de producto" style="text;html=1;strokeColor=none;fillColor=none;align=center;verticalAlign=middle;whiteSpace=wrap;rounded=0;" vertex="1" parent="1">
          <mxGeometry x="860" y="2860" width="170" height="30" as="geometry" />
        </mxCell>
        <mxCell id="vDS71QeLexQegp2Wuo-t-159" value="Nuevo" style="html=1;shadow=0;dashed=0;shape=mxgraph.bootstrap.rrect;rSize=5;strokeColor=none;strokeWidth=1;fillColor=#0085FC;fontColor=#FFFFFF;whiteSpace=wrap;align=center;verticalAlign=middle;spacingLeft=0;fontStyle=0;fontSize=16;spacing=5;" vertex="1" parent="1">
          <mxGeometry x="117" y="2830" width="80" height="40" as="geometry" />
        </mxCell>
        <mxCell id="vDS71QeLexQegp2Wuo-t-160" value="Formulario de Producto" style="text;html=1;strokeColor=#82b366;fillColor=#d5e8d4;align=center;verticalAlign=middle;whiteSpace=wrap;rounded=0;" vertex="1" parent="1">
          <mxGeometry x="486" y="3030" width="140" height="30" as="geometry" />
        </mxCell>
        <mxCell id="vDS71QeLexQegp2Wuo-t-161" value="" style="verticalLabelPosition=bottom;verticalAlign=top;html=1;shape=mxgraph.basic.rect;fillColor2=none;strokeWidth=1;size=20;indent=5;" vertex="1" parent="1">
          <mxGeometry x="412" y="3107" width="310" height="593" as="geometry" />
        </mxCell>
        <mxCell id="vDS71QeLexQegp2Wuo-t-162" value="" style="rounded=0;whiteSpace=wrap;html=1;" vertex="1" parent="1">
          <mxGeometry x="434" y="3167" width="266" height="20" as="geometry" />
        </mxCell>
        <mxCell id="vDS71QeLexQegp2Wuo-t-163" value="Nombre" style="text;html=1;strokeColor=none;fillColor=none;align=center;verticalAlign=middle;whiteSpace=wrap;rounded=0;" vertex="1" parent="1">
          <mxGeometry x="432" y="3137" width="60" height="30" as="geometry" />
        </mxCell>
        <mxCell id="vDS71QeLexQegp2Wuo-t-164" value="" style="rounded=0;whiteSpace=wrap;html=1;" vertex="1" parent="1">
          <mxGeometry x="436" y="3237" width="266" height="20" as="geometry" />
        </mxCell>
        <mxCell id="vDS71QeLexQegp2Wuo-t-165" value="Referencia" style="text;html=1;strokeColor=none;fillColor=none;align=center;verticalAlign=middle;whiteSpace=wrap;rounded=0;" vertex="1" parent="1">
          <mxGeometry x="439" y="3207" width="60" height="30" as="geometry" />
        </mxCell>
        <mxCell id="vDS71QeLexQegp2Wuo-t-166" value="" style="rounded=0;whiteSpace=wrap;html=1;" vertex="1" parent="1">
          <mxGeometry x="438" y="3357" width="266" height="20" as="geometry" />
        </mxCell>
        <mxCell id="vDS71QeLexQegp2Wuo-t-167" value="Cantidad" style="text;html=1;strokeColor=none;fillColor=none;align=center;verticalAlign=middle;whiteSpace=wrap;rounded=0;" vertex="1" parent="1">
          <mxGeometry x="436" y="3327" width="64" height="30" as="geometry" />
        </mxCell>
        <mxCell id="vDS71QeLexQegp2Wuo-t-168" value="GUARDAR" style="html=1;shadow=0;dashed=0;shape=mxgraph.bootstrap.rrect;rSize=5;strokeColor=none;strokeWidth=1;fillColor=#0085FC;fontColor=#FFFFFF;whiteSpace=wrap;align=center;verticalAlign=middle;spacingLeft=0;fontStyle=0;fontSize=16;spacing=5;" vertex="1" parent="1">
          <mxGeometry x="516" y="3637" width="107" height="40" as="geometry" />
        </mxCell>
        <mxCell id="vDS71QeLexQegp2Wuo-t-170" value="" style="rounded=0;whiteSpace=wrap;html=1;" vertex="1" parent="1">
          <mxGeometry x="436" y="3298" width="266" height="20" as="geometry" />
        </mxCell>
        <mxCell id="vDS71QeLexQegp2Wuo-t-171" value="Categoria" style="text;html=1;strokeColor=none;fillColor=none;align=center;verticalAlign=middle;whiteSpace=wrap;rounded=0;" vertex="1" parent="1">
          <mxGeometry x="434" y="3268" width="60" height="30" as="geometry" />
        </mxCell>
        <mxCell id="vDS71QeLexQegp2Wuo-t-172" value="" style="verticalLabelPosition=bottom;verticalAlign=top;html=1;shape=mxgraph.basic.rect;fillColor2=none;strokeWidth=1;size=20;indent=5;" vertex="1" parent="1">
          <mxGeometry x="478" y="3400" width="182" height="140" as="geometry" />
        </mxCell>
        <mxCell id="vDS71QeLexQegp2Wuo-t-173" value="Foto" style="fillColor=none;strokeColor=none;align=left;fontSize=14;" vertex="1" parent="1">
          <mxGeometry x="471" y="3542" width="150" height="40" as="geometry" />
        </mxCell>
        <mxCell id="vDS71QeLexQegp2Wuo-t-174" value="Choose File" style="fillColor=#FEFEFE;strokeColor=#AAAAAA;fontSize=14;gradientColor=#F0F0F0;" vertex="1" parent="1">
          <mxGeometry x="474" y="3580" width="90" height="30" as="geometry" />
        </mxCell>
        <mxCell id="vDS71QeLexQegp2Wuo-t-175" value="No file chosen" style="fillColor=none;strokeColor=none;align=left;fontSize=14;spacing=5;" vertex="1" parent="1">
          <mxGeometry x="564" y="3580" width="100" height="30" as="geometry" />
        </mxCell>
      </root>
    </mxGraphModel>
  </diagram>
</mxfile>
